# xmcd
# 
# Track frame offsets:
#     150
#     13647
#     30556
#     55903
#     77964
#     114183
#     131939
#     159208
#     173516
#     197796
#     218875
#     244385
# 
# Disc length: 3624
# 
# Revision: 2
# Processed by: cddbd v1.5.2PL0 Copyright (c) Steve Scherf et al.
# Submitted via: fre:ac v1.0.27
# 
DISCID=9c0e260c
DTITLE=Cathy Lemmons and Johnny Ace - Lemonace
DYEAR=2009
DGENRE=Blues
TTITLE0=Brand New Day
TTITLE1=Love Like A Fire
TTITLE2=Used To These Blues
TTITLE3=Sink Or Swim
TTITLE4=Shoot To Kill
TTITLE5=When Bad Luck Looks Good
TTITLE6=Gimme A Penny
TTITLE7=I Got It
TTITLE8=Stay
TTITLE9=I'm Not The Woman I Used To Be
TTITLE10=Get This Thing Off'a My Back
TTITLE11=Move On
EXTD=
EXTT0=
EXTT1=
EXTT2=
EXTT3=
EXTT4=
EXTT5=
EXTT6=
EXTT7=
EXTT8=
EXTT9=
EXTT10=
EXTT11=
PLAYORDER=
